<?xml version="1.0" standalone="no"?>
<!DOCTYPE svg PUBLIC "-//W3C//DTD SVG 20010904//EN"
 "http://www.w3.org/TR/2001/REC-SVG-20010904/DTD/svg10.dtd">
<svg version="1.0" xmlns="http://www.w3.org/2000/svg"
 width="260.000000pt" height="260.000000pt" viewBox="0 0 260.000000 260.000000"
 preserveAspectRatio="xMidYMid meet">
<metadata>
Created by potrace 1.14, written by Peter Selinger 2001-2017
</metadata>
<g transform="translate(0.000000,260.000000) scale(0.100000,-0.100000)"
fill="#000000" stroke="none">
<path d="M520 2391 c-93 -26 -146 -52 -217 -104 -78 -58 -135 -130 -185 -232
-119 -247 -86 -534 95 -836 65 -108 144 -219 156 -219 4 0 22 15 39 33 22 22
55 87 98 188 36 84 72 162 81 171 23 26 69 23 87 -4 8 -13 38 -77 66 -143 28
-66 59 -139 70 -162 22 -48 73 -86 174 -128 147 -61 144 -115 -11 -179 -45
-18 -95 -43 -112 -55 -26 -19 -81 -113 -81 -140 0 -22 300 -256 443 -345 l77
-48 67 43 c374 236 794 636 991 945 67 104 134 248 164 349 19 68 23 102 22
220 0 123 -3 150 -26 217 -59 176 -166 307 -311 378 -124 60 -188 73 -337 67
-144 -5 -212 -25 -311 -89 -62 -40 -183 -153 -232 -218 l-27 -35 -37 45 c-102
126 -217 215 -345 268 -55 23 -80 26 -198 29 -108 2 -148 -1 -200 -16z m1519
-354 l48 -103 67 -32 c82 -39 83 -56 8 -93 -72 -35 -84 -50 -130 -154 -33 -75
-43 -90 -62 -90 -19 0 -29 15 -61 89 -44 103 -58 120 -131 155 -75 37 -74 53
9 94 73 35 76 40 133 170 43 99 58 94 119 -36z"/>
</g>
</svg>
